HIERARCHY
ROOT Hips
{
	OFFSET 0.00000 0.00000 0.00000
	CHANNELS 6 Xposition Yposition Zposition Zrotation Yrotation Xrotation 
	JOINT LHipJoint
	{
		OFFSET 0 0 0
		CHANNELS 3 Zrotation Yrotation Xrotation
		JOINT LeftHip
		{
			OFFSET 1.51378 -1.89840 0.47569
			CHANNELS 3 Zrotation Yrotation Xrotation
			JOINT LeftKnee
			{
				OFFSET 2.53380 -6.96157 0.00000
				CHANNELS 3 Zrotation Yrotation Xrotation
				JOINT LeftAnkle
				{
					OFFSET 2.74874 -7.55212 0.00000
					CHANNELS 3 Zrotation Yrotation Xrotation
					JOINT LeftToe
					{
						OFFSET 0.18263 -0.50178 1.99677
						CHANNELS 3 Zrotation Yrotation Xrotation
						End Site
						{
							OFFSET 0.00000 -0.00000 1.03711
						}
					}
				}
			}
		}
	}
	JOINT RHipJoint
	{
		OFFSET 0 0 0
		CHANNELS 3 Zrotation Yrotation Xrotation
		JOINT RightHip
		{
			OFFSET -1.43037 -1.89840 0.47569
			CHANNELS 3 Zrotation Yrotation Xrotation
			JOINT RightKnee
			{
				OFFSET -2.69849 -7.41406 0.00000
				CHANNELS 3 Zrotation Yrotation Xrotation
				JOINT RightAnkle
				{
					OFFSET -2.69369 -7.40087 0.00000
					CHANNELS 3 Zrotation Yrotation Xrotation
					JOINT RightToe
					{
						OFFSET -0.28932 -0.79491 2.04975
						CHANNELS 3 Zrotation Yrotation Xrotation
						End Site
						{
							OFFSET 0.00009 0.00010 1.09536
						}
					}
				}
			}
		}
	}
	JOINT lowerback
	{
		OFFSET 0 0 0
		CHANNELS 3 Zrotation Yrotation Xrotation
		JOINT Chest
		{
			OFFSET 0.01912 1.94784 -0.02419
			CHANNELS 3 Zrotation Yrotation Xrotation
			JOINT Chest2
			{
				OFFSET 0.07565 1.94258 0.01909
				CHANNELS 3 Zrotation Yrotation Xrotation
				JOINT lowerneck
				{
					OFFSET 0 0 0
					CHANNELS 3 Zrotation Yrotation Xrotation
					JOINT Neck
					{
						OFFSET -0.07010 1.86195 0.18976
						CHANNELS 3 Zrotation Yrotation Xrotation
						JOINT Head
						{
							OFFSET 0.02284 1.86595 -0.31497
							CHANNELS 3 Zrotation Yrotation Xrotation
							End Site
							{
								OFFSET 0.01200 1.90122 -0.12838
							}
						}
					}
				}
				JOINT LeftCollar
				{
					OFFSET 0 0 0
					CHANNELS 3 Zrotation Yrotation Xrotation
					JOINT LeftShoulder
					{
						OFFSET 3.39189 0.96331 -0.10437
CHANNELS 3 Zrotation Xrotation Yrotation
						JOINT LeftElbow
						{
OFFSET 0 -5.148450 0.000000
CHANNELS 3 Zrotation Xrotation Yrotation
							JOINT LeftWrist
							{
OFFSET 0 -3.436740 -0.000000
CHANNELS 3 Zrotation Xrotation Yrotation
								JOINT lhand
								{
									OFFSET 0 0 0
CHANNELS 3 Zrotation Xrotation Yrotation
									JOINT LFingers
									{
OFFSET 0 -0.588710 0.000000
CHANNELS 3 Zrotation Xrotation Yrotation
										End Site
										{
OFFSET 0 -0.474630 0.000000
										}
									}
								}
								JOINT LThumb
								{
OFFSET 0 0.000000 0.000000
CHANNELS 3 Zrotation Xrotation Yrotation
									End Site
									{
OFFSET 0 -0.481880 0.481880
									}
								}
							}
						}
					}
				}
				JOINT RightCollar
				{
					OFFSET 0 0 0
					CHANNELS 3 Zrotation Yrotation Xrotation
					JOINT RightShoulder
					{
						OFFSET -3.34934 1.18831 -0.19928
CHANNELS 3 Zrotation Xrotation Yrotation
						JOINT RightElbow
						{
OFFSET 0 -5.421850 0.000000
CHANNELS 3 Zrotation Xrotation Yrotation
							JOINT RightWrist
							{
OFFSET 0 -3.513170 -0.000000
CHANNELS 3 Zrotation Xrotation Yrotation
								JOINT rhand
								{
									OFFSET 0 0 0
CHANNELS 3 Zrotation Xrotation Yrotation
									JOINT RFingers
									{
OFFSET 0 -0.663190 0.000000
CHANNELS 3 Zrotation Xrotation Yrotation
										End Site
										{
OFFSET 0 -0.534680 0.000000
										}
									}
								}
								JOINT RThumb
								{
OFFSET 0 0.000000 0.000000
CHANNELS 3 Zrotation Xrotation Yrotation
									End Site
									{
OFFSET 0 -0.542840 0.542840
									}
								}
							}
						}
					}
				}
			}
		}
	}
}
MOTION
Frames: 9
Frame Time: 0.008333333333333333
-7.230956 18.720001 0.530098 -254.179818 74.085242 -604.974424 0.000000 0.000000 0.000000 9.396913 10.607294 -96.859919 33.628412 14.776417 133.549388 -0.411657 -13.809551 -3.434710 0.030796 -1.132581 -3.113722 0.000000 0.000000 0.000000 1.736851 2.129755 -22.497348 -2.316880 -9.497106 27.363068 -0.598685 -6.926067 -18.756858 -0.800830 5.710725 -15.947709 4.868455 -0.111694 7.967336 2.705288 0.415613 2.498185 0.020194 0.252778 -1.868741 -1.569765 3.812435 -8.188926 -10.631756 12.864157 37.424063 -1.987882 4.917171 15.289952 0.000000 0.000000 0.000000 -1.363766 8.367244 -15.767977 22.601251 -33.649853 6.916114 21.055195 1.822529 -19.593929 0.000000 0.000000 0.000000 -7.125000 0.000000 0.000000 -7.317677 50.715185 1.035276 0.000000 0.000000 0.000000 -13.392737 3.936718 17.892184 -28.373031 -39.457384 -10.359897 -32.650205 -16.883896 -12.255560 0.000000 0.000000 0.000000 7.125000 0.000000 0.000000 -3.720487 15.534156 -2.593712
-7.184133 18.592852 -0.092274 -256.082628 72.123586 -607.341135 0.000000 0.000000 0.000000 13.025147 -1.504994 -80.535972 25.727066 19.190127 106.967550 -0.072851 -7.066693 8.120737 0.001677 0.163648 0.449579 0.000000 0.000000 0.000000 -3.080289 3.460421 -22.270783 -2.808515 -10.378295 30.210705 -0.722139 -6.867315 -19.986460 -0.426785 4.192554 -11.619047 6.864950 -0.840768 8.355082 2.781667 -0.344354 2.908522 -0.939669 -0.096904 -1.691126 -2.299882 3.400134 -8.182463 -11.729991 12.756018 37.071620 -2.328254 4.680123 15.198706 0.000000 0.000000 0.000000 -1.576916 7.999846 -13.748281 22.724900 -33.786608 6.984748 23.993400 2.468757 -19.945859 0.000000 0.000000 0.000000 -7.125000 0.000000 0.000000 -4.499069 51.589585 0.730729 0.000000 0.000000 0.000000 -15.181461 3.715824 18.405084 -28.263457 -39.357688 -10.290355 -32.247856 -16.664494 -12.531224 0.000000 0.000000 0.000000 7.125000 0.000000 0.000000 -3.414398 15.273087 -2.398673
-6.973454 18.291271 -0.899230 -264.537426 70.416440 -615.072078 0.000000 0.000000 0.000000 4.389946 -5.422578 -60.327110 14.036503 19.120129 72.311755 0.245403 -3.446464 11.271676 0.104312 -2.015897 -5.551563 0.000000 0.000000 0.000000 -8.986342 4.736253 -25.016274 -3.822571 -11.920068 35.450321 -1.057034 -5.375659 -22.066519 -0.700156 5.347469 -14.902514 7.355251 -0.911557 7.240101 2.854096 -0.517904 2.938606 -1.130513 -0.165355 -1.054597 -2.868044 3.091699 -8.266819 -12.120728 12.580334 37.274516 -2.425186 4.476354 15.329282 0.000000 0.000000 0.000000 -2.544122 9.475611 -11.801363 22.966878 -34.052532 7.119752 25.153479 2.686329 -17.825755 0.000000 0.000000 0.000000 -7.125000 0.000000 0.000000 -2.836618 49.516333 0.315884 0.000000 0.000000 0.000000 -17.762499 3.793554 18.687935 -28.418612 -39.498786 -10.388855 -31.658513 -16.822038 -12.505707 0.000000 0.000000 0.000000 7.125000 0.000000 0.000000 -3.015389 15.388504 -2.110080
-6.643438 17.841755 -1.992162 -275.974302 70.398162 -625.921210 0.000000 0.000000 0.000000 -4.614513 -3.003425 -41.799214 5.047586 13.431881 41.017364 0.569574 -6.677688 18.233589 1.198703 -6.946751 -19.557660 0.000000 0.000000 0.000000 -13.798555 7.194346 -27.704389 -4.965948 -13.345315 40.675232 -1.455413 -4.185826 -24.631591 -1.120749 6.722311 -18.896102 7.878793 -1.027109 6.485187 3.145326 -0.705422 2.781699 -1.111498 -0.254166 -0.812240 -2.598931 2.591575 -7.796756 -12.785659 11.602017 36.603439 -2.911304 4.017206 14.872432 0.000000 0.000000 0.000000 -4.210969 11.547504 -9.533824 22.057724 -33.042232 6.617304 24.900775 3.091659 -17.306818 0.000000 0.000000 0.000000 -7.125000 0.000000 0.000000 -2.975185 48.916125 0.287597 0.000000 0.000000 0.000000 -20.654898 3.557156 18.806106 -28.598932 -39.661821 -10.503753 -31.455878 -16.809511 -12.649168 0.000000 0.000000 0.000000 7.125000 0.000000 0.000000 -2.861386 15.252427 -2.010374
-6.352730 17.429827 -3.327365 -289.811715 73.163436 -638.770997 0.000000 0.000000 0.000000 -9.206196 -1.651187 -30.204228 2.264988 9.397509 27.046909 0.736866 -6.695719 20.000249 2.360582 -9.577062 -27.620027 0.000000 0.000000 0.000000 -15.447404 8.685635 -29.541467 -5.154015 -13.555141 41.483823 -1.533572 -2.586639 -24.449230 -1.693926 8.196121 -23.311952 7.736385 -0.844869 6.367433 4.159297 -0.438858 2.617382 -0.002805 -0.124767 -0.889935 -2.548476 1.450655 -9.102266 -11.214049 8.890449 36.278173 -2.661390 2.844140 14.616681 0.000000 0.000000 0.000000 -5.209636 13.128570 -10.262288 21.690958 -32.625981 6.418428 24.044486 3.622250 -17.585562 0.000000 0.000000 0.000000 -7.125000 0.000000 0.000000 -3.868614 49.080485 0.390325 0.000000 0.000000 0.000000 -23.388652 2.694510 17.188170 -28.340925 -39.428175 -10.339498 -31.482784 -16.528748 -12.456206 0.000000 0.000000 0.000000 7.125000 0.000000 0.000000 -2.900921 15.470816 -2.024616
-6.219395 16.810192 -4.710446 -305.999716 77.362423 -654.547165 0.000000 0.000000 0.000000 -11.373943 3.780210 -30.157924 2.936879 10.591131 30.914053 0.250371 -4.512877 -8.953808 4.969603 -13.347890 -40.688000 0.000000 0.000000 0.000000 -14.829080 7.005002 -32.649069 -5.699019 -14.130155 43.761360 -1.664869 2.395160 -23.752682 -1.808148 8.454444 -24.103126 4.844517 -0.454023 7.234680 4.650793 -0.022255 2.677205 2.086630 0.057894 -1.292052 -0.821303 0.157959 -9.209897 -8.571896 5.258563 36.250092 -2.432988 1.698167 14.208881 0.000000 0.000000 0.000000 -2.607289 13.136975 -13.421159 21.702311 -32.638760 6.424659 25.675114 3.991283 -19.285412 0.000000 0.000000 0.000000 -7.125000 0.000000 0.000000 -2.642928 51.179453 0.402495 0.000000 0.000000 0.000000 -22.996116 0.970490 13.214653 -26.942239 -38.123893 -9.463455 -31.187198 -15.008391 -13.191313 0.000000 0.000000 0.000000 7.125000 0.000000 0.000000 -2.619135 14.668925 -1.872510
-6.299867 16.517383 -5.475968 -319.660504 85.826170 -667.501876 0.000000 0.000000 0.000000 -4.454072 1.012896 -37.364497 5.146930 13.546557 41.451927 0.985337 -5.770633 -17.721232 3.007507 -10.707013 -31.298278 0.000000 0.000000 0.000000 -8.515262 5.255945 -31.438846 -5.275844 -13.687803 42.001154 -1.557336 0.425414 -23.480311 -2.054438 8.978527 -25.728266 3.683008 -0.043356 7.778965 4.626029 0.473641 2.888997 2.670013 0.303500 -1.385534 -1.305544 -1.109794 -8.811186 -4.615643 2.137964 36.770122 -1.189287 0.749344 14.071836 0.000000 0.000000 0.000000 3.672146 8.535397 -15.225655 22.471588 -33.505594 6.844472 25.725250 1.527081 -18.243613 0.000000 0.000000 0.000000 -7.125000 0.000000 0.000000 -2.361250 50.062545 0.294018 0.000000 0.000000 0.000000 -16.762440 2.443252 10.749241 -27.485418 -38.638061 -9.800753 -33.039951 -17.291625 -12.892414 0.000000 0.000000 0.000000 7.125000 0.000000 0.000000 -3.909318 14.732740 -2.793139
-6.321691 16.326107 -6.009501 -468.648659 85.302613 -816.724866 0.000000 0.000000 0.000000 2.938996 0.814360 -42.985574 7.062694 15.384263 49.110525 1.267326 -12.874350 -20.760364 1.856339 -8.558896 -24.425617 0.000000 0.000000 0.000000 -1.479990 3.966928 -28.552644 -4.707155 -13.046064 39.541440 -1.151393 -4.231485 -22.206352 -2.729651 10.243935 -29.770253 1.233188 0.751575 8.377140 4.238001 1.341617 3.350154 3.564535 0.725360 -1.302270 -1.468301 -2.057032 -9.174804 -0.609511 -0.591790 37.050398 0.074896 0.039746 14.210546 0.000000 0.000000 0.000000 8.154051 5.129883 -14.578326 28.536081 -39.604468 10.463964 23.740541 -0.040914 -20.245848 0.000000 0.000000 0.000000 -7.125000 0.000000 0.000000 -4.836439 51.862727 0.818793 0.000000 0.000000 0.000000 -13.915117 4.166789 16.852720 -27.318275 -38.480948 -9.696529 -30.955637 -16.117360 -16.568067 0.000000 0.000000 0.000000 7.125000 0.000000 0.000000 -2.067552 10.857580 -1.640909
-6.260259 16.510350 -6.913031 -482.297033 76.996002 -831.013775 0.000000 0.000000 0.000000 8.165750 -4.091972 -43.785199 7.607522 15.822819 51.136319 1.454052 -12.615831 -22.032628 1.507043 -7.752822 -21.966177 0.000000 0.000000 0.000000 3.727497 3.482769 -22.788186 -3.518198 -11.489928 33.950647 0.102718 -9.418383 -11.399485 -4.057975 12.237148 -36.576258 0.385178 0.746065 9.690343 4.319103 1.326869 3.400766 4.118221 0.726084 -1.992474 -1.438935 -3.321622 -9.450944 2.198621 -3.392569 37.630739 0.818835 -0.780425 14.630816 0.000000 0.000000 0.000000 9.135730 2.359279 -16.234043 31.236293 -41.929796 12.227438 24.374436 2.072077 -19.863828 0.000000 0.000000 0.000000 -7.125000 0.000000 0.000000 -4.094750 51.569586 0.663503 0.000000 0.000000 0.000000 -10.560765 5.778754 12.638990 -27.779596 -38.912557 -9.984957 -32.872931 -17.167682 -14.915034 0.000000 0.000000 0.000000 7.125000 0.000000 0.000000 -3.542168 12.408951 -2.703662
